<svg enable-background="new 0 0 31.463 31.463" height="31.463" viewBox="0 0 31.463 31.463" width="31.463" xmlns="http://www.w3.org/2000/svg"><circle cx="15.698" cy="2.644" r="2.644" fill="#f5a623"/><path d="m21.396 8.791s.148-2.953-2.968-2.953h-5.403c-3.005 0-2.983 2.727-2.985 2.953l.001 8.38c.049.452.495.967 1.049.967.551 0 .956-.499 1.006-.952l.938 13.346c.069.679.549.932 1.139.932.589 0 1.068-.253 1.137-.932h.833c.072.679.55.932 1.137.932.591 0 1.07-.253 1.141-.932l.966-13.354c0 .453.438.963.992.963.552 0 .993-.517 1.042-.969z" fill="#f5a623"/></svg>